<?xml version="1.0" encoding="utf-8"?>
<!-- Generator: Adobe Illustrator 27.5.0, SVG Export Plug-In . SVG Version: 6.00 Build 0)  -->
<svg version="1.1" xmlns="http://www.w3.org/2000/svg" xmlns:xlink="http://www.w3.org/1999/xlink" x="0px" y="0px"
	 viewBox="0 0 750 500" style="enable-background:new 0 0 750 500;" xml:space="preserve">
<g id="BACKGROUND">
	<rect style="fill: none;" width="750" height="500"/>
</g>
<g id="OBJECTS">
	<g>
		<path style="fill:#73D4EB;" d="M614.184,241.483c0.546-3.559,0.83-7.205,0.83-10.917c0-39.461-31.99-71.451-71.451-71.451
			c-8.748,0-17.126,1.579-24.873,4.456C503.819,100.49,447.168,53.537,379.546,53.537c-1.037,0-2.063,0.041-3.095,0.063
			c-1.031-0.022-2.058-0.063-3.095-0.063c-67.622,0-124.272,46.953-139.143,110.034c-7.747-2.877-16.125-4.456-24.873-4.456
			c-39.461,0-71.451,31.99-71.451,71.451c0,3.712,0.284,7.358,0.83,10.917c-38.43,15.226-65.61,52.726-65.61,96.575
			c0,41.821,24.726,77.861,60.353,94.316h86.976h156.014h156.014h86.976c35.627-16.455,60.353-52.496,60.353-94.316
			C679.794,294.208,652.614,256.709,614.184,241.483z"/>
		<g>
			<path style="fill:#5D90F2;" d="M105.566,446.463h537.559c3.891,0,7.045-3.154,7.045-7.045l0,0c0-3.891-3.154-7.045-7.045-7.045
				H105.566c-3.891,0-7.045,3.154-7.045,7.045l0,0C98.521,443.309,101.675,446.463,105.566,446.463z"/>
			<g>
				<g style="opacity:0.2;">
					<path d="M596.517,155.318c-3.06,0-5.907,0.888-8.323,2.4c-2.67-9.729-11.554-16.888-22.131-16.888
						c-8.383,0-15.695,4.505-19.707,11.211c-3.064-2.106-6.77-3.345-10.769-3.345c-9.074,0-16.651,6.353-18.561,14.85
						c-1.283-0.469-2.662-0.738-4.108-0.738c-6.618,0-11.983,5.365-11.983,11.983c0,6.618,5.365,11.983,11.983,11.983h22.669h11.882
						h49.048c8.686,0,15.728-7.042,15.728-15.728C612.245,162.36,605.203,155.318,596.517,155.318z"/>
				</g>
				<g>
					<path style="fill:#FFFFFF;" d="M590.279,149.081c-3.06,0-5.907,0.888-8.323,2.4c-2.67-9.729-11.554-16.888-22.131-16.888
						c-8.383,0-15.695,4.505-19.706,11.211c-3.064-2.106-6.77-3.345-10.769-3.345c-9.074,0-16.651,6.353-18.561,14.85
						c-1.283-0.469-2.662-0.738-4.108-0.738c-6.618,0-11.983,5.365-11.983,11.983c0,6.618,5.365,11.983,11.983,11.983h22.669h11.882
						h49.048c8.686,0,15.728-7.042,15.728-15.728C606.008,156.122,598.966,149.081,590.279,149.081z"/>
				</g>
			</g>
			<g>
				<g style="opacity:0.2;">
					<path d="M205.189,231.042v18.032h-18.268v-18.032c-6.542,3.332-11.025,10.125-11.025,17.969
						c0,8.477,5.235,15.727,12.646,18.706v48.736c0,4.15,3.364,7.513,7.513,7.513l0,0c4.15,0,7.514-3.364,7.514-7.513v-48.736
						c7.411-2.98,12.646-10.229,12.646-18.706C216.215,241.167,211.731,234.374,205.189,231.042z M196.055,320.097
						c-2.278,0-4.125-1.847-4.125-4.125s1.847-4.125,4.125-4.125s4.125,1.847,4.125,4.125S198.333,320.097,196.055,320.097z"/>
				</g>
				<g>
					<path style="fill:#FF5A59;" d="M200.776,226.628v18.032h-18.268v-18.032c-6.542,3.332-11.025,10.125-11.025,17.969
						c0,8.477,5.235,15.727,12.646,18.706v48.736c0,4.15,3.364,7.514,7.514,7.514l0,0c4.15,0,7.513-3.364,7.513-7.514v-48.736
						c7.411-2.98,12.646-10.23,12.646-18.706C211.801,236.753,207.317,229.96,200.776,226.628z M191.642,315.683
						c-2.278,0-4.125-1.847-4.125-4.125s1.847-4.125,4.125-4.125s4.125,1.847,4.125,4.125S193.92,315.683,191.642,315.683z"/>
				</g>
			</g>
			<g>
				<g style="opacity:0.2;">
					
						<ellipse transform="matrix(0.7071 -0.7071 0.7071 0.7071 -139.1895 468.3329)" cx="495.733" cy="402.183" rx="26.528" ry="26.528"/>
					<polygon points="507.013,402.462 488.411,391.722 488.411,413.202 					"/>
				</g>
				<g>
					<g>
						
							<ellipse transform="matrix(0.9213 -0.3889 0.3889 0.9213 -115.0942 221.0155)" style="fill:#FF5A59;" cx="488.318" cy="394.768" rx="26.528" ry="26.528"/>
						<polygon style="fill:#FFFFFF;" points="499.598,395.047 480.996,384.307 480.996,405.787 						"/>
					</g>
				</g>
			</g>
			<path style="fill:none;stroke:#9BECFF;stroke-width:0.946;stroke-miterlimit:10;" d="M482.528,297.598"/>
			<path style="fill:none;stroke:#9BECFF;stroke-width:0.946;stroke-miterlimit:10;" d="M240.729,220.987"/>
			<path style="fill:none;stroke:#9BECFF;stroke-width:0.946;stroke-miterlimit:10;" d="M240.729,297.598"/>
			<path style="fill:none;stroke:#9BECFF;stroke-width:0.946;stroke-miterlimit:10;" d="M482.528,220.987"/>
			<g>
				<g style="opacity:0.2;">
					<path d="M175.038,369.645c0-1.013-0.126-1.995-0.344-2.942l5.51-3.181l-3.789-6.562l-5.491,3.17
						c-1.459-1.378-3.227-2.43-5.198-3.024v-6.34h-7.577v6.34c-1.964,0.593-3.727,1.639-5.183,3.011l-5.526-3.19l-3.789,6.562
						l5.534,3.195c-0.221,0.953-0.349,1.941-0.349,2.961c0,1.029,0.131,2.026,0.355,2.987l-5.561,3.21l3.789,6.562l5.565-3.213
						c1.442,1.353,3.184,2.39,5.124,2.982v6.425h7.577v-6.405c1.951-0.582,3.704-1.611,5.156-2.961l5.552,3.206l3.788-6.562
						l-5.517-3.185C174.901,371.712,175.038,370.696,175.038,369.645z M161.938,373.434c-2.092,0-3.788-1.696-3.788-3.789
						c0-2.092,1.696-3.789,3.788-3.789c2.092,0,3.789,1.696,3.789,3.789C165.727,371.737,164.031,373.434,161.938,373.434z"/>
				</g>
				<g>
					<path style="fill:#284A96;" d="M170.625,365.232c0-1.013-0.126-1.995-0.344-2.942l5.51-3.181l-3.788-6.562l-5.491,3.17
						c-1.459-1.378-3.227-2.43-5.198-3.024v-6.34h-7.577v6.34c-1.965,0.593-3.727,1.639-5.183,3.01l-5.526-3.19l-3.789,6.562
						l5.534,3.195c-0.221,0.953-0.349,1.941-0.349,2.961c0,1.029,0.131,2.026,0.355,2.987l-5.561,3.211l3.789,6.562l5.565-3.213
						c1.442,1.353,3.184,2.39,5.124,2.982v6.425h7.577v-6.405c1.951-0.582,3.703-1.611,5.156-2.961l5.552,3.206l3.788-6.562
						l-5.517-3.185C170.488,367.299,170.625,366.282,170.625,365.232z M157.525,369.02c-2.092,0-3.788-1.696-3.788-3.789
						c0-2.092,1.696-3.789,3.788-3.789c2.092,0,3.789,1.696,3.789,3.789C161.313,367.324,159.617,369.02,157.525,369.02z"/>
				</g>
			</g>
			<g>
				<g style="opacity:0.2;">
					<path d="M517.387,116.021c0-1.303-0.162-2.566-0.442-3.785l7.089-4.093L519.16,99.7l-7.065,4.079
						c-1.877-1.773-4.152-3.126-6.688-3.891v-8.157h-9.749v8.157c-2.528,0.763-4.796,2.109-6.669,3.873l-7.11-4.105l-4.875,8.443
						l7.121,4.111c-0.284,1.226-0.449,2.498-0.449,3.81c0,1.324,0.168,2.607,0.457,3.844l-7.155,4.131l4.875,8.443l7.161-4.134
						c1.856,1.741,4.096,3.075,6.593,3.837v8.267h9.749v-8.241c2.51-0.749,4.765-2.072,6.635-3.81l7.144,4.125l4.875-8.443
						l-7.099-4.099C517.211,118.681,517.387,117.373,517.387,116.021z M500.531,120.896c-2.692,0-4.874-2.183-4.874-4.875
						c0-2.692,2.182-4.875,4.874-4.875c2.692,0,4.875,2.182,4.875,4.875C505.406,118.713,503.224,120.896,500.531,120.896z"/>
				</g>
				<g>
					<path style="fill:#284A96;" d="M512.973,111.607c0-1.303-0.162-2.566-0.442-3.785l7.09-4.093l-4.875-8.443l-7.065,4.079
						c-1.877-1.773-4.152-3.126-6.688-3.891v-8.157h-9.749v8.157c-2.527,0.763-4.796,2.109-6.669,3.874l-7.11-4.105l-4.875,8.443
						l7.121,4.111c-0.284,1.226-0.449,2.497-0.449,3.81c0,1.325,0.169,2.607,0.457,3.844l-7.155,4.131l4.875,8.443l7.161-4.134
						c1.856,1.741,4.096,3.075,6.593,3.837v8.267h9.749v-8.241c2.51-0.749,4.765-2.072,6.635-3.81l7.144,4.125l4.874-8.443
						l-7.099-4.098C512.797,114.267,512.973,112.959,512.973,111.607z M496.118,116.482c-2.692,0-4.875-2.183-4.875-4.875
						c0-2.692,2.182-4.874,4.875-4.874c2.692,0,4.875,2.182,4.875,4.874C500.992,114.299,498.81,116.482,496.118,116.482z"/>
				</g>
			</g>
			<g>
				<g style="opacity:0.2;">
					<rect x="230.393" y="364.523" width="58.658" height="6.357"/>
					<rect x="230.393" y="370.88" width="58.658" height="51.258"/>
					<rect x="236.506" y="377.264" width="45.067" height="39.387"/>
					<path d="M262.438,396.978c2.55-1.214,4.317-3.807,4.317-6.82c0-4.174-3.383-7.557-7.557-7.557
						c-4.174,0-7.557,3.384-7.557,7.557c0,3.012,1.767,5.605,4.317,6.82c-4.81,1.402-8.328,5.837-8.328,11.1v8.574h23.137v-8.574
						C270.766,402.815,267.248,398.38,262.438,396.978z"/>
				</g>
				<g>
					<g>
						<g>
							<rect x="223.336" y="357.466" style="fill:#4575B3;" width="58.658" height="6.357"/>
							<rect x="223.336" y="363.823" style="fill:#FFFFFF;" width="58.658" height="51.258"/>
						</g>
						<rect x="229.449" y="370.207" style="fill:#6FE7FF;" width="45.067" height="39.387"/>
						<path style="fill:#4575B3;" d="M255.38,389.921c2.55-1.214,4.317-3.807,4.317-6.82c0-4.174-3.383-7.557-7.557-7.557
							c-4.174,0-7.557,3.384-7.557,7.557c0,3.012,1.767,5.605,4.317,6.82c-4.81,1.402-8.328,5.837-8.328,11.1v8.574h23.137v-8.574
							C263.708,395.757,260.19,391.323,255.38,389.921z"/>
					</g>
				</g>
			</g>
			<g>
				<g style="opacity:0.2;">
					<polygon points="583.355,225.185 566.2,206.164 549.045,225.185 558.088,225.185 558.088,267.794 574.311,267.794 
						574.311,225.185 					"/>
				</g>
				<g>
					<polygon style="fill:#5D90F2;" points="578.941,220.771 561.786,201.751 544.631,220.771 553.675,220.771 553.675,263.38 
						569.897,263.38 569.897,220.771 					"/>
				</g>
			</g>
		</g>
		<g>
			<g style="opacity:0.2;">
				<rect x="246.965" y="194.006" width="270.9" height="152.367"/>
				<rect x="251.04" y="209.166" width="262.749" height="132.644"/>
				<circle cx="479.99" cy="202.209" r="2.349"/>
				<circle cx="491.658" cy="202.209" r="2.349"/>
				<circle cx="503.326" cy="202.209" r="2.349"/>
				
					<polyline style="fill:none;stroke:#000000;stroke-width:2.561;stroke-linecap:round;stroke-linejoin:round;stroke-miterlimit:10;" points="
					272.522,262.465 264.109,267.956 272.522,273.448 				"/>
				
					<polyline style="fill:none;stroke:#000000;stroke-width:2.561;stroke-linecap:round;stroke-linejoin:round;stroke-miterlimit:10;" points="
					486.774,262.465 495.187,267.956 486.774,273.448 				"/>
				<rect x="280.686" y="228.402" width="198.21" height="76.61"/>
				<polyline points="364.968,341.81 364.968,317.892 280.686,317.892 280.686,341.81 				"/>
				<rect x="373.34" y="317.892" width="105.556" height="2.952"/>
				<rect x="373.34" y="324.88" width="105.556" height="2.952"/>
				<rect x="373.34" y="331.869" width="105.556" height="2.952"/>
				<rect x="373.34" y="338.858" width="105.556" height="2.952"/>
			</g>
			<g>
				<g>
					<g>
						<rect x="239.55" y="186.591" style="fill:#FFFFFF;" width="270.9" height="152.367"/>
						<rect x="243.625" y="201.751" style="fill:#5D90F2;" width="262.749" height="132.645"/>
					</g>
					<g>
						<circle style="fill:#5D90F2;" cx="472.576" cy="194.795" r="2.349"/>
						<circle style="fill:#FFB651;" cx="484.243" cy="194.795" r="2.349"/>
						<circle style="fill:#FF2F2E;" cx="495.911" cy="194.795" r="2.349"/>
					</g>
					
						<polyline style="fill:none;stroke:#A4C4FF;stroke-width:2.561;stroke-linecap:round;stroke-linejoin:round;stroke-miterlimit:10;" points="
						265.107,255.05 256.694,260.542 265.107,266.033 					"/>
					
						<polyline style="fill:none;stroke:#A4C4FF;stroke-width:2.561;stroke-linecap:round;stroke-linejoin:round;stroke-miterlimit:10;" points="
						479.359,255.05 487.772,260.542 479.359,266.033 					"/>
					<g>
						<rect x="273.271" y="220.987" style="fill:#A4C4FF;" width="198.21" height="76.61"/>
						<polyline style="fill:#A4C4FF;" points="357.553,334.395 357.553,310.477 273.271,310.477 273.271,334.395 						"/>
						<rect x="365.925" y="310.477" style="fill:#4575B3;" width="105.556" height="2.952"/>
						<rect x="365.925" y="317.466" style="fill:#4575B3;" width="105.556" height="2.952"/>
						<rect x="365.925" y="324.454" style="fill:#4575B3;" width="105.556" height="2.952"/>
						<rect x="365.925" y="331.443" style="fill:#4575B3;" width="105.556" height="2.952"/>
					</g>
				</g>
			</g>
		</g>
		<g>
			<g style="opacity:0.2;">
				<polygon points="410.69,75.757 338.581,75.757 338.581,193.118 426.248,193.118 426.248,91.314 				"/>
				<polygon points="410.69,91.314 426.248,91.314 410.69,75.757 				"/>
				<text transform="matrix(1 0 0 1 349.3064 123.7429)" style="font-family:'OpenSans-Extrabold'; font-size:29.4861px;">CMS</text>
				<path d="M412.415,134.58h-61.059c-0.857,0-1.551-0.694-1.551-1.551l0,0c0-0.857,0.694-1.551,1.551-1.551h61.059
					c0.857,0,1.551,0.694,1.551,1.551l0,0C413.965,133.886,413.271,134.58,412.415,134.58z"/>
				<path d="M412.415,144.978h-61.059c-0.857,0-1.551-0.694-1.551-1.551l0,0c0-0.857,0.694-1.551,1.551-1.551h61.059
					c0.857,0,1.551,0.694,1.551,1.551l0,0C413.965,144.284,413.271,144.978,412.415,144.978z"/>
				<path d="M412.415,155.376h-61.059c-0.857,0-1.551-0.694-1.551-1.551l0,0c0-0.856,0.694-1.551,1.551-1.551h61.059
					c0.857,0,1.551,0.694,1.551,1.551l0,0C413.965,154.681,413.271,155.376,412.415,155.376z"/>
				<path d="M412.415,165.773h-61.059c-0.857,0-1.551-0.694-1.551-1.551l0,0c0-0.857,0.694-1.551,1.551-1.551h61.059
					c0.857,0,1.551,0.694,1.551,1.551l0,0C413.965,165.079,413.271,165.773,412.415,165.773z"/>
				<path d="M412.415,176.171h-61.059c-0.857,0-1.551-0.694-1.551-1.551l0,0c0-0.856,0.694-1.551,1.551-1.551h61.059
					c0.857,0,1.551,0.694,1.551,1.551l0,0C413.965,175.477,413.271,176.171,412.415,176.171z"/>
			</g>
			<g>
				<g>
					<polygon style="fill:#FFFFFF;" points="403.276,68.342 331.167,68.342 331.167,185.704 418.833,185.704 418.833,83.9 					"/>
					<polygon style="fill:#C2CAF6;" points="403.276,83.9 418.833,83.9 403.276,68.342 					"/>
					<g>
						
							<text transform="matrix(1 0 0 1 341.8916 116.3281)" style="fill:#5D90F2; font-family:'OpenSans-Extrabold'; font-size:29.4861px;">CMS</text>
						<path style="fill:#4575B3;" d="M405,127.166h-61.059c-0.857,0-1.551-0.694-1.551-1.551l0,0c0-0.857,0.694-1.551,1.551-1.551
							H405c0.857,0,1.551,0.694,1.551,1.551l0,0C406.551,126.471,405.856,127.166,405,127.166z"/>
						<path style="fill:#4575B3;" d="M405,137.563h-61.059c-0.857,0-1.551-0.694-1.551-1.551l0,0c0-0.857,0.694-1.551,1.551-1.551
							H405c0.857,0,1.551,0.694,1.551,1.551l0,0C406.551,136.869,405.856,137.563,405,137.563z"/>
						<path style="fill:#4575B3;" d="M405,147.961h-61.059c-0.857,0-1.551-0.694-1.551-1.551l0,0c0-0.857,0.694-1.551,1.551-1.551
							H405c0.857,0,1.551,0.694,1.551,1.551l0,0C406.551,147.267,405.856,147.961,405,147.961z"/>
						<path style="fill:#4575B3;" d="M405,158.359h-61.059c-0.857,0-1.551-0.694-1.551-1.551l0,0c0-0.857,0.694-1.551,1.551-1.551
							H405c0.857,0,1.551,0.694,1.551,1.551l0,0C406.551,157.664,405.856,158.359,405,158.359z"/>
						<path style="fill:#4575B3;" d="M405,168.756h-61.059c-0.857,0-1.551-0.694-1.551-1.551l0,0c0-0.856,0.694-1.551,1.551-1.551
							H405c0.857,0,1.551,0.694,1.551,1.551l0,0C406.551,168.062,405.856,168.756,405,168.756z"/>
					</g>
				</g>
			</g>
		</g>
		<g>
			<g style="opacity:0.2;">
				<path d="M181.579,126.096h99.362c1.418,0,2.567,1.149,2.567,2.566v70.97c0,1.417-1.149,2.566-2.567,2.566h-99.362
					c-1.417,0-2.567-1.149-2.567-2.566v-70.97C179.013,127.245,180.162,126.096,181.579,126.096z"/>
				<rect x="187.279" y="134.005" width="87.963" height="49.253"/>
				<path d="M242.012,148.732c0,3.327-2.697,6.024-6.024,6.024c-3.327,0-6.024-2.697-6.024-6.024c0-3.327,2.697-6.024,6.024-6.024
					C239.315,142.708,242.012,145.405,242.012,148.732z"/>
				<polygon points="187.279,164.147 211.092,146.24 235.989,169.296 255.722,154.756 275.242,169.296 275.242,183.258 
					187.279,183.258 				"/>
			</g>
			<g>
				<g>
					<path style="fill:#4575B3;" d="M173.88,118.396h99.362c1.417,0,2.567,1.149,2.567,2.566v70.97c0,1.417-1.149,2.566-2.567,2.566
						H173.88c-1.417,0-2.567-1.149-2.567-2.566v-70.97C171.313,119.545,172.462,118.396,173.88,118.396z"/>
					<rect x="179.579" y="126.305" style="fill:#FFFFFF;" width="87.963" height="49.253"/>
					<path style="fill:#FFC42F;" d="M234.313,141.033c0,3.327-2.697,6.024-6.024,6.024c-3.327,0-6.024-2.697-6.024-6.024
						c0-3.327,2.697-6.024,6.024-6.024C231.616,135.009,234.313,137.706,234.313,141.033z"/>
					<polygon style="fill:#A4C4FF;" points="179.579,156.447 203.392,138.54 228.289,161.597 248.022,147.056 267.543,161.597 
						267.543,175.558 179.579,175.558 					"/>
				</g>
			</g>
		</g>
		<g>
			<g style="opacity:0.2;">
				<path d="M596.468,290.016h-89.56c-0.973,0-1.763,0.789-1.763,1.763v6.636h93.085v-6.636
					C598.231,290.805,597.442,290.016,596.468,290.016z"/>
				<path d="M505.146,298.414v55.29c0,0.973,0.789,1.762,1.763,1.762h89.56c0.973,0,1.763-0.789,1.763-1.762v-55.29H505.146z"/>
				<text transform="matrix(1 0 0 1 523.2841 339.3993)" style="font-family:'OpenSans-Extrabold'; font-size:36.9758px;">&lt;/&gt;</text>
			</g>
			<g>
				<g>
					<g>
						<path style="fill:#4575B3;" d="M589.411,282.958h-89.56c-0.973,0-1.763,0.789-1.763,1.762v6.636h93.085v-6.636
							C591.173,283.747,590.384,282.958,589.411,282.958z"/>
						<path style="fill:#FFFFFF;" d="M498.089,291.356v55.29c0,0.973,0.789,1.762,1.763,1.762h89.56
							c0.973,0,1.763-0.789,1.763-1.762v-55.29H498.089z"/>
					</g>
					
						<text transform="matrix(1 0 0 1 516.2266 332.3418)" style="fill:#5D90F2; font-family:'OpenSans-Extrabold'; font-size:36.9758px;">&lt;/&gt;</text>
				</g>
			</g>
		</g>
		<g>
			<path style="fill:#FFB651;" d="M354.044,306.236l-26.444,7.808c-3.268,0.965-5.941,3.328-7.298,6.453l-24.408,56.176
				c-1.754,4.037-0.966,8.728,2.011,11.97l36.721,39.988l13.027-12.128l-28.144-36.481l17.211-36.274l12.629-7.874L354.044,306.236z
				"/>
			<polygon style="fill:#FFB651;" points="338.572,315.885 414.303,315.885 419.678,383.057 331.525,383.057 			"/>
			<path style="fill:#FFB651;" d="M395.956,306.236l26.444,7.808c3.268,0.965,5.941,3.328,7.298,6.453l24.408,56.176
				c1.754,4.037,0.966,8.728-2.011,11.97l-36.721,39.988l-13.027-12.128l28.144-36.481l-17.211-36.274l-12.629-7.874
				L395.956,306.236z"/>
			<path style="fill:#ED9536;" d="M374.437,329.043c16.274,0,29.467-6.895,29.467-15.401c0-2.004-0.74-3.915-2.072-5.671
				l-5.876-1.735l1.528,9.649h-44.969l1.528-9.649l-7.318,2.161c-1.135,1.637-1.756,3.403-1.756,5.245
				C344.97,322.148,358.163,329.043,374.437,329.043z"/>
			<g>
				<path style="fill:#FA6443;" d="M388.003,294.222v-14.515h-26.641v14.341c2.684,1.739,7.006,3.587,13.32,3.587
					C380.785,297.634,385.168,295.907,388.003,294.222z"/>
				<path style="fill:#FA7B60;" d="M388.003,303.179v-8.957c-2.834,1.685-7.217,3.412-13.32,3.412
					c-6.315,0-10.637-1.848-13.32-3.587v9.132c-7.264,2.009-12.109,5.612-12.109,9.723c0,6.304,11.385,11.414,25.429,11.414
					s25.429-5.11,25.429-11.414C400.111,308.79,395.267,305.188,388.003,303.179z"/>
			</g>
			<g>
				<path style="fill:#FA7B60;" d="M350.377,260.422c1.694,3.32,1.111,7.01-1.302,8.242c-2.414,1.232-5.744-0.461-7.438-3.781
					c-1.694-3.32-1.111-7.01,1.302-8.242C345.352,255.409,348.683,257.102,350.377,260.422z"/>
				<path style="fill:#FA7B60;" d="M399.131,260.216c-1.85,3.626-1.214,7.655,1.422,9.001c2.636,1.345,6.273-0.503,8.123-4.129
					c1.85-3.626,1.214-7.655-1.422-9.001C404.618,254.742,400.982,256.591,399.131,260.216z"/>
			</g>
			<path style="fill:#FA7B60;" d="M401.711,256.521c0,18.07-12.101,36.123-27.029,36.123c-14.928,0-27.029-18.053-27.029-36.123
				s12.101-32.719,27.029-32.719C389.61,223.802,401.711,238.451,401.711,256.521z"/>
			<g>
				<path style="fill:#1F1B4D;" d="M387.868,253.331c-0.449-0.373-0.942-0.759-1.448-1.042c-0.502-0.297-1.018-0.541-1.548-0.711
					c-0.531-0.164-1.06-0.309-1.613-0.347c-0.269-0.053-0.552-0.039-0.827-0.057c-0.137-0.013-0.28,0.013-0.42,0.016
					c-0.142,0.021-0.277-0.087-0.487-0.742l-0.017-0.054c-0.083-0.257-0.097-0.528-0.055-0.777c0.114-0.668,0.304-0.788,0.486-0.78
					c0.185,0.002,0.367-0.019,0.554,0.002c0.372,0.033,0.743,0.039,1.112,0.12c0.738,0.123,1.457,0.39,2.116,0.738
					c0.663,0.349,1.248,0.821,1.74,1.358c0.486,0.553,0.885,1.134,1.132,1.859c0.075,0.221-0.043,0.46-0.263,0.536
					c-0.144,0.049-0.296,0.016-0.406-0.074L387.868,253.331z"/>
			</g>
			<g>
				<path style="fill:#1F1B4D;" d="M360.194,252.915c0.247-0.725,0.646-1.306,1.132-1.859c0.492-0.537,1.078-1.009,1.74-1.358
					c0.658-0.348,1.378-0.615,2.116-0.738c0.369-0.08,0.74-0.087,1.112-0.12c0.187-0.021,0.369-0.001,0.554-0.002
					c0.183-0.008,0.372,0.112,0.487,0.78c0.046,0.267,0.024,0.529-0.052,0.77l-0.02,0.061c-0.21,0.655-0.346,0.763-0.487,0.742
					c-0.139-0.003-0.283-0.03-0.42-0.016c-0.276,0.018-0.558,0.004-0.827,0.057c-0.553,0.038-1.082,0.182-1.613,0.347
					c-0.53,0.17-1.045,0.414-1.548,0.711c-0.506,0.284-1,0.669-1.448,1.042l-0.054,0.045c-0.179,0.149-0.445,0.125-0.594-0.055
					C360.171,253.204,360.148,253.05,360.194,252.915z"/>
			</g>
			<path style="fill:#FFFFFF;" d="M367.788,275.257c0,0,5.08,2.632,13.278,0c0,0,1.725,10.06-6.588,10.06
				C366.164,285.317,367.788,275.257,367.788,275.257z"/>
			<path style="fill:#1F1B4D;" d="M396.333,256.489c-0.001,0.746-0.062,1.504,0.115,2.23c0.621,2.554,4.304,2.347,5.466,0.329
				c0.728-1.265,0.72-2.806,0.691-4.266c-0.103-5.23-0.206-10.461-0.308-15.691c-0.04-2.014-0.594-3.943-0.325-5.946
				c0.304-2.261,1.349-4.319,2.38-6.324c0.608-1.182,1.215-2.363,1.823-3.545c-2.988,0.765-5.976,1.53-8.964,2.294
				c0.232-0.883,2.559-6.029,1.891-6.497c-0.333-0.233-6.514,2.387-6.514,2.63c-3.119-4.265-7.376-8.005-11.893-10.737
				c-2.282-1.38-4.71-2.52-7.229-3.394c-0.615-0.213-7.329-1.794-7.326-1.739c0.178,2.801,0.766,5.539,2.188,7.957
				c-5.673-4.845-12.504-8.325-19.759-10.066c0.967,2.548,1.935,5.097,2.902,7.645c0.462,1.219,0.871,2.481,1.424,3.66
				c0.19,0.406,0.95,2.791,1.164,2.865c-2.761-0.946-5.883-2.209-8.739-2.653c-1.796-0.279-3.665-0.332-5.478-0.416
				c-0.537-0.025-5.093,0.17-5.215-0.098c2.866,6.292,6.495,12.775,11.47,17.652c0.568,0.557,1.174,1.127,1.428,1.881
				c0.205,0.61,0.155,1.272,0.106,1.913c-0.493,6.443-0.953,12.844-0.858,19.317c0.039,2.662,2.914,5.481,5.252,2.987
				c1.387-1.48,1.594-3.234,1.618-5.148c0.031-2.51,0.332-5.038,0.786-7.504c0.477-2.595,1.831-3.746,4.272-4.697
				c3.535-1.376,7.559-1.456,11.147-0.222c1.868,0.643,3.656,1.636,5.626,1.797c2.467,0.202,4.818-0.925,7.193-1.624
				c2.701-0.796,5.654-1.038,8.309-0.101c2.123,0.749,3.788,1.985,4.295,4.189C396.116,248.858,396.335,252.717,396.333,256.489z"/>
			
				<path style="fill:none;stroke:#CC5443;stroke-width:1.5247;stroke-linecap:round;stroke-linejoin:round;stroke-miterlimit:10;" d="
				M372.458,256.521l-1.757,11.14c-0.158,1.002,0.616,1.908,1.631,1.908h3.27"/>
			<circle style="fill:#1C1B2B;" cx="364.69" cy="257.362" r="1.683"/>
			<circle style="fill:#1C1B2B;" cx="384.583" cy="257.362" r="1.683"/>
			<path style="fill:#FF5A59;" d="M363.684,275.609c0-4.97-4.029-8.999-8.999-8.999c-2,0-3.841,0.66-5.335,1.764
				c1.712,5.972,4.64,11.453,8.391,15.692C361.204,282.813,363.684,279.505,363.684,275.609z"/>
			<path style="fill:#FF5A59;" d="M395.266,266.61c-4.97,0-9,4.029-9,8.999c0,3.73,2.27,6.93,5.504,8.295
				c3.753-4.297,6.665-9.843,8.342-15.87C398.712,267.136,397.052,266.61,395.266,266.61z"/>
			<g>
				<polygon style="fill:#273A5B;" points="430.292,367.434 318.027,367.434 321.904,428.632 426.416,428.632 				"/>
				<polygon style="fill:#1F2D47;" points="321.904,428.632 322.306,434.98 426.014,434.98 426.416,428.632 				"/>
			</g>
			<polygon style="fill:#284A96;" points="427.509,364.218 320.811,364.218 318.027,367.434 430.292,367.434 			"/>
		</g>
		<ellipse style="fill:#395485;" cx="371.556" cy="402.981" rx="9.79" ry="8.212"/>
	</g>
</g>
</svg>
